#!OML:ASF F:\VICON\USERDATA\INSTALL\rory3\rory3.ASF
:FULLY-SPECIFIED
:DEGREES
305
root 0.669936 18.4928 -13.9379 7.78755 -5.74969 3.97323
lowerback 6.75068 -0.666999 -0.0144688
upperback -2.77063 -0.707654 2.98747
thorax -6.65464 -0.277486 3.22838
lowerneck -18.735 -2.68819 -9.80307
upperneck 12.4744 -2.06099 5.95119
head 7.046 -0.923707 3.30808
rclavicle -2.16675e-014 3.81667e-014
rhumerus -31.6654 -9.38057 -77.2502
rradius 41.958
rwrist -1.28047
rhand -17.782 9.98261
rfingers 7.12502
rthumb 8.48073 -19.8271
lclavicle -2.16675e-014 3.81667e-014
lhumerus -37.0319 7.59067 82.2408
lradius 57.3928
lwrist 1.03337
lhand -25.236 23.5281
lfingers 7.12502
lthumb 1.28364 53.504
rfemur -11.3266 7.96982 15.6222
rtibia 24.4905
rfoot -1.62337 -11.7089
rtoes 7.73635
lfemur -8.46574 -3.39928 -22.1734
ltibia 16.9726
lfoot 0.530701 0.961335
ltoes -9.70119
306
root 0.667337 18.492 -13.9364 7.99323 -5.74618 4.03904
lowerback 6.64441 -0.697282 -0.178336
upperback -2.8323 -0.76679 2.94281
thorax -6.65404 -0.300211 3.28006
lowerneck -18.454 -2.59495 -10.0131
upperneck 12.293 -1.94402 6.19185
head 6.93487 -0.857427 3.43399
rclavicle -5.76476e-015 -2.06736e-014
rhumerus -32.1245 -9.45566 -77.1156
rradius 41.7572
rwrist -1.49492
rhand -17.7745 9.89418
rfingers 7.12502
rthumb 8.48799 -19.9152
lclavicle -5.76476e-015 -2.06736e-014
lhumerus -37.3022 8.05456 82.2046
lradius 57.0944
lwrist 1.04124
lhand -25.4198 24.1685
lfingers 7.12502
lthumb 1.10616 54.1454
rfemur -11.5 7.8801 15.5342
rtibia 24.4268
rfoot -1.47727 -11.7802
rtoes 9.12759
lfemur -8.66613 -3.38847 -22.2201
ltibia 16.9022
lfoot 0.432727 0.863961
ltoes -9.93207
307
root 0.663403 18.4953 -13.9378 8.20948 -5.72808 3.94317
lowerback 6.47524 -0.760581 -0.1976
upperback -2.83513 -0.854695 2.96208
thorax -6.55408 -0.343506 3.31775
lowerneck -18.1663 -2.49865 -10.0777
upperneck 11.9489 -1.83139 6.27721
head 6.76696 -0.798137 3.48144
rclavicle -1.09332e-014 6.36111e-015
rhumerus -32.1063 -9.93409 -76.9575
rradius 40.991
rwrist -1.0409
rhand -17.6496 10.1108
rfingers 7.12502
rthumb 8.60853 -19.6937
lclavicle -1.09332e-014 6.36111e-015
lhumerus -37.4903 8.62937 82.1784
lradius 56.6622
lwrist 0.855561
lhand -25.5777 24.4281
lfingers 7.12502
lthumb 0.953572 54.4057
rfemur -11.6689 7.79445 15.6391
rtibia 24.3707
rfoot -1.57727 -11.8131
rtoes 9.2589
lfemur -8.77283 -3.22524 -22.1072
ltibia 16.7811
lfoot 0.288666 0.614692
ltoes -10.4295
308
root 0.660288 18.4969 -13.9392 8.25224 -5.70333 3.96195
lowerback 6.54294 -0.746145 -0.317859
upperback -2.8423 -0.8481 2.91765
thorax -6.59993 -0.335471 3.33997
lowerneck -18.0189 -2.47665 -10.099
upperneck 11.9258 -1.81756 6.31844
head 6.73438 -0.790691 3.49977
rclavicle -1.07344e-014 -2.70347e-014
rhumerus -32.4734 -10.1388 -76.8239
rradius 40.6843
rwrist -0.994805
rhand -17.7518 10.0375
rfingers 7.12502
rthumb 8.50984 -19.771
lclavicle -1.07344e-014 -2.70347e-014
lhumerus -37.5178 9.01281 82.2232
lradius 55.8471
lwrist 0.530185
lhand -25.2375 23.1582
lfingers 7.12502
lthumb 1.28218 53.1341
rfemur -11.6673 7.66976 15.6383
rtibia 24.3211
rfoot -1.74036 -11.709
rtoes 8.37619
lfemur -8.73279 -3.158 -22.1301
ltibia 16.6782
lfoot 0.274444 0.558451
ltoes -11.2435
309
root 0.658737 18.4961 -13.9394 8.2768 -5.60677 3.94542
lowerback 6.63924 -0.703499 -0.260357
upperback -2.81312 -0.792678 2.79045
thorax -6.62962 -0.313424 3.16828
lowerneck -18.0661 -2.53699 -10.0271
upperneck 11.9581 -1.9193 6.35351
head 6.76109 -0.832881 3.48883
rclavicle 1.39149e-014 3.49861e-014
rhumerus -33.0666 -10.3283 -76.7501
rradius 40.6796
rwrist -1.16222
rhand -17.7796 9.75857
rfingers 7.12502
rthumb 8.48306 -20.051
lclavicle 1.39149e-014 3.49861e-014
lhumerus -37.354 9.28202 82.2472
lradius 54.8401
lwrist 0.1811
lhand -25.0332 22.6617
lfingers 7.12502
lthumb 1.47953 52.6363
rfemur -11.6225 7.50244 15.6765
rtibia 24.2426
rfoot -1.56877 -11.7229
rtoes 8.63832
lfemur -8.82213 -3.2956 -22.0815
ltibia 16.6765
lfoot 0.430606 0.585277
ltoes -11.9817
310
root 0.65426 18.5001 -13.9435 8.3748 -5.42345 3.90244
lowerback 6.59753 -0.703001 -0.161208
upperback -2.66929 -0.793844 2.66402
thorax -6.45549 -0.324024 2.97502
lowerneck -18.3197 -2.64507 -9.91081
upperneck 11.8452 -2.06726 6.36022
head 6.77812 -0.892673 3.45436
rclavicle -1.64991e-014 7.95139e-015
rhumerus -32.9575 -11.2501 -76.6165
rradius 39.9199
rwrist -0.657803
rhand -17.6021 9.61565
rfingers 7.12502
rthumb 8.65433 -20.187
lclavicle -1.64991e-014 7.95139e-015
lhumerus -36.9845 9.47437 82.284
lradius 54.009
lwrist -0.282045
lhand -24.4842 23.7581
lfingers 7.12502
lthumb 2.00973 53.7284
rfemur -11.6709 7.42913 15.7487
rtibia 24.1857
rfoot -1.39622 -11.8948
rtoes 9.33263
lfemur -8.98186 -3.48649 -21.9584
ltibia 16.6635
lfoot 0.599576 0.546591
ltoes -12.6812
311
root 0.65047 18.5048 -13.9489 8.4817 -5.33042 3.86698
lowerback 6.57279 -0.710168 -0.154598
upperback -2.51861 -0.810173 2.59573
thorax -6.28175 -0.336627 2.89756
lowerneck -18.8489 -2.72951 -9.88599
upperneck 12.1258 -2.14557 6.37851
head 6.96388 -0.922958 3.45069
rclavicle 2.20651e-014 -2.22639e-014
rhumerus -32.6196 -12.2096 -76.4458
rradius 38.8874
rwrist 0.104564
rhand -17.4458 9.81768
rfingers 7.12502
rthumb 8.80519 -19.9786
lclavicle 2.20651e-014 -2.22639e-014
lhumerus -36.7119 9.80842 82.3527
lradius 53.3572
lwrist -0.86858
lhand -23.4412 24.3121
lfingers 7.12502
lthumb 3.01701 54.2705
rfemur -11.7668 7.30302 15.8011
rtibia 24.1141
rfoot -1.41036 -11.8344
rtoes 8.63666
lfemur -9.08324 -3.57089 -21.8726
ltibia 16.6744
lfoot 0.542378 0.61858
ltoes -10.9475
312
root 0.648041 18.5065 -13.948 8.53181 -5.43756 3.8403
lowerback 6.54137 -0.640724 -0.205191
upperback -2.38869 -0.729143 2.5204
thorax -6.13069 -0.298612 2.83413
lowerneck -19.1684 -2.76902 -9.84936
upperneck 12.2165 -2.18832 6.43291
head 7.05042 -0.93294 3.45906
rclavicle -1.39149e-014 1.43125e-014
rhumerus -32.7818 -12.5232 -76.4174
rradius 38.5643
rwrist 0.224775
rhand -17.5161 9.79006
rfingers 7.12502
rthumb 8.73728 -20.0091
lclavicle -1.39149e-014 1.43125e-014
lhumerus -36.6424 10.1781 82.3996
lradius 52.6657
lwrist -1.35574
lhand -22.2339 20.899
lfingers 7.12502
lthumb 4.1829 50.8376
rfemur -11.7867 7.21048 15.8249
rtibia 24.0089
rfoot -1.36192 -11.5629
rtoes 7.43759
lfemur -9.15679 -3.56332 -21.8578
ltibia 16.788
lfoot 0.557645 0.946109
ltoes -11.9925
313
root 0.643971 18.5101 -13.9484 8.47613 -5.52418 3.77972
lowerback 6.59839 -0.583664 -0.264732
upperback -2.23775 -0.662403 2.48426
thorax -6.00712 -0.266308 2.8203
lowerneck -19.3443 -2.79233 -9.82036
upperneck 12.0699 -2.21413 6.48443
head 7.03414 -0.934683 3.46692
rclavicle 0 -1.27222e-014
rhumerus -32.9857 -12.5697 -76.4394
rradius 38.2904
rwrist 0.190103
rhand -17.5246 10.0521
rfingers 7.12502
rthumb 8.72908 -19.7474
lclavicle 0 -1.27222e-014
lhumerus -36.5774 10.5295 82.4711
lradius 51.7075
lwrist -1.71467
lhand -23.4609 23.8024
lfingers 7.12502
lthumb 2.99801 53.7611
rfemur -11.678 7.12247 15.9032
rtibia 23.8965
rfoot -1.05494 -11.443
rtoes 7.70872
lfemur -9.1724 -3.43051 -21.799
ltibia 16.9506
lfoot 0.437242 0.520988
ltoes -13.0026
314
root 0.639459 18.5148 -13.9539 8.48857 -5.52974 3.65269
lowerback 6.7127 -0.565337 -0.241526
upperback -2.19636 -0.63532 2.48304
thorax -6.03051 -0.253847 2.80422
lowerneck -19.4073 -2.73375 -9.84089
upperneck 11.9815 -2.13557 6.57661
head 7.01022 -0.887493 3.50943
rclavicle -2.36554e-014 1.59028e-014
rhumerus -33.1013 -12.8623 -76.3203
rradius 37.6378
rwrist 0.60575
rhand -17.5141 10.0146
rfingers 7.12502
rthumb 8.73926 -19.7844
lclavicle -2.36554e-014 1.59028e-014
lhumerus -36.6054 10.8168 82.5317
lradius 50.6369
lwrist -2.0885
lhand -24.7302 28.2435
lfingers 7.12502
lthumb 1.77214 58.2159
rfemur -11.681 7.05261 16.0465
rtibia 23.7882
rfoot -0.792591 -11.4258
rtoes 8.34775
lfemur -9.22598 -3.40849 -21.6383
ltibia 17.0574
lfoot 0.579859 0.888488
ltoes -11.999
315
root 0.631363 18.5192 -13.9573 8.48708 -5.53694 3.48882
lowerback 6.84837 -0.556932 -0.24726
upperback -2.2148 -0.620427 2.52256
thorax -6.12803 -0.244349 2.85017
lowerneck -19.246 -2.63071 -9.87494
upperneck 11.9098 -2.00466 6.59953
head 6.94938 -0.825881 3.53698
rclavicle -1.41137e-014 -4.92986e-014
rhumerus -33.5128 -12.9029 -76.1946
rradius 37.218
rwrist 0.820854
rhand -17.5998 9.76678
rfingers 7.12502
rthumb 8.65654 -20.0357
lclavicle -1.41137e-014 -4.92986e-014
lhumerus -36.8949 11.0889 82.5764
lradius 49.4664
lwrist -3.09659
lhand -26.6707 39.3315
lfingers 7.12502
lthumb -0.102076 69.3112
rfemur -11.6219 7.06898 16.2528
rtibia 23.6583
rfoot -0.704554 -11.413
rtoes 8.28645
lfemur -9.22673 -3.35948 -21.4279
ltibia 17.1232
lfoot 0.662213 1.04513
ltoes -11.4927
316
root 0.624022 18.524 -13.9573 8.45077 -5.49711 3.43886
lowerback 6.89586 -0.611083 -0.363178
upperback -2.17345 -0.701908 2.55681
thorax -6.10583 -0.279901 2.96149
lowerneck -19.0298 -2.57598 -9.88551
upperneck 11.8074 -1.93416 6.52557
head 6.87345 -0.801358 3.52064
rclavicle -1.37161e-014 1.43125e-014
rhumerus -33.7828 -13.1656 -76.0252
rradius 36.6753
rwrist 1.24766
rhand -17.4061 9.79974
rfingers 7.12502
rthumb 8.84351 -19.995
lclavicle -1.37161e-014 1.43125e-014
lhumerus -37.2523 11.4615 82.5594
lradius 48.2954
lwrist -4.31727
lhand -26.1241 29.6875
lfingers 7.12502
lthumb 0.425924 59.6668
rfemur -11.472 7.02738 16.3425
rtibia 23.5364
rfoot -0.657491 -11.3947
rtoes 8.61862
lfemur -9.21277 -3.30553 -21.346
ltibia 17.1961
lfoot 0.76672 1.00061
ltoes -12.2028
317
root 0.618393 18.5291 -13.9597 8.44903 -5.47143 3.33114
lowerback 6.94633 -0.669295 -0.396067
upperback -2.14895 -0.781163 2.58469
thorax -6.10391 -0.317367 3.01943
lowerneck -18.8512 -2.51929 -9.96284
upperneck 11.7839 -1.86676 6.60101
head 6.83197 -0.76827 3.5656
rclavicle 1.88845e-014 9.54166e-015
rhumerus -33.9774 -13.3368 -75.9379
rradius 36.0799
rwrist 1.62821
rhand -17.2189 9.94456
rfingers 7.12502
rthumb 9.02414 -19.8424
lclavicle 1.88845e-014 9.54166e-015
lhumerus -37.6548 11.8754 82.4989
lradius 47.53
lwrist -4.67224
lhand -24.3894 16.9773
lfingers 7.12502
lthumb 2.10126 46.9467
rfemur -11.4271 6.95001 16.4788
rtibia 23.4675
rfoot -0.585169 -11.3664
rtoes 8.76729
lfemur -9.23629 -3.16996 -21.2011
ltibia 17.2289
lfoot 0.864481 0.90677
ltoes -12.1884
318
root 0.611571 18.5301 -13.9636 8.42341 -5.60004 3.23868
lowerback 7.00618 -0.636213 -0.521803
upperback -2.09087 -0.74764 2.6124
thorax -6.07698 -0.296235 3.11571
lowerneck -18.7923 -2.46005 -10.0049
upperneck 11.6634 -1.78929 6.67145
head 6.77739 -0.726089 3.60317
rclavicle -3.97569e-016 4.77083e-015
rhumerus -34.3134 -13.2944 -75.8834
rradius 35.7284
rwrist 1.73819
rhand -17.2177 10.2298
rfingers 7.12502
rthumb 9.02531 -19.5571
lclavicle -3.97569e-016 4.77083e-015
lhumerus -37.7531 12.203 82.5607
lradius 46.785
lwrist -4.54144
lhand -23.3317 20.4656
lfingers 7.12502
lthumb 3.12278 50.4225
rfemur -11.4454 6.97109 16.5812
rtibia 23.4638
rfoot -0.56688 -11.2258
rtoes 8.11949
lfemur -9.20511 -3.05783 -21.0876
ltibia 17.2173
lfoot 0.924336 0.947718
ltoes -11.2537
